<svg width="132" height="66" viewBox="0 0 132 66" fill="none" xmlns="http://www.w3.org/2000/svg">
<g filter="url(#filter0_d)">
<rect x="6.1759" y="2.3125" width="119.472" height="53.375" rx="26.6875" fill="#3246D3"/>
<rect x="6.1759" y="2.3125" width="119.472" height="53.375" rx="26.6875" fill="#07216B"/>
<rect x="6.1759" y="2.3125" width="119.472" height="53.375" rx="26.6875" stroke="#F3643F" stroke-width="4"/>
<path d="M72.7112 29.3906H73.5081C74.2528 29.3906 74.8101 29.2448 75.1799 28.9531C75.5497 28.6562 75.7346 28.2266 75.7346 27.6641C75.7346 27.0964 75.5784 26.6771 75.2659 26.4062C74.9586 26.1354 74.4742 26 73.8127 26H72.7112V29.3906ZM78.1799 27.5781C78.1799 28.8073 77.7945 29.7474 77.0237 30.3984C76.2581 31.0495 75.1669 31.375 73.7502 31.375H72.7112V35.4375H70.2893V24.0156H73.9377C75.3232 24.0156 76.3752 24.3151 77.094 24.9141C77.818 25.5078 78.1799 26.3958 78.1799 27.5781ZM82.5315 35.4375H80.1487V23.2812H82.5315V35.4375ZM90.5862 35.4375L90.1252 34.25H90.0627C89.6617 34.7552 89.2476 35.1068 88.8206 35.3047C88.3987 35.4974 87.8466 35.5938 87.1643 35.5938C86.3258 35.5938 85.6643 35.3542 85.1799 34.875C84.7008 34.3958 84.4612 33.7135 84.4612 32.8281C84.4612 31.901 84.7841 31.2188 85.4299 30.7812C86.081 30.3385 87.0601 30.0938 88.3674 30.0469L89.8831 30V29.6172C89.8831 28.7318 89.4299 28.2891 88.5237 28.2891C87.8258 28.2891 87.0055 28.5 86.0627 28.9219L85.2737 27.3125C86.2789 26.7865 87.3935 26.5234 88.6174 26.5234C89.7893 26.5234 90.6877 26.7786 91.3127 27.2891C91.9377 27.7995 92.2502 28.5755 92.2502 29.6172V35.4375H90.5862ZM89.8831 31.3906L88.9612 31.4219C88.2685 31.4427 87.7528 31.5677 87.4143 31.7969C87.0758 32.026 86.9065 32.375 86.9065 32.8438C86.9065 33.5156 87.2919 33.8516 88.0627 33.8516C88.6148 33.8516 89.0549 33.6927 89.3831 33.375C89.7164 33.0573 89.8831 32.6354 89.8831 32.1094V31.3906ZM93.4612 26.7031H96.0706L97.719 31.6172C97.8596 32.0443 97.956 32.5495 98.0081 33.1328H98.0549C98.1122 32.5964 98.2242 32.0911 98.3909 31.6172L100.008 26.7031H102.563L98.8674 36.5547C98.5289 37.4661 98.0445 38.1484 97.4143 38.6016C96.7893 39.0547 96.0575 39.2812 95.219 39.2812C94.8075 39.2812 94.4039 39.237 94.0081 39.1484V37.2578C94.2945 37.3255 94.607 37.3594 94.9456 37.3594C95.3674 37.3594 95.7346 37.2292 96.0471 36.9688C96.3648 36.7135 96.6122 36.3255 96.7893 35.8047L96.9299 35.375L93.4612 26.7031Z" fill="white"/>
<path fill-rule="evenodd" clip-rule="evenodd" d="M38.9907 45C47.8273 45 54.9907 37.8366 54.9907 29C54.9907 20.1634 47.8273 13 38.9907 13C30.1542 13 22.9907 20.1634 22.9907 29C22.9907 37.8366 30.1542 45 38.9907 45ZM35.6353 20.2309L48.4928 27.5466C49.6434 28.197 49.6397 29.8 48.4928 30.4504L35.6353 37.7626C34.4774 38.4235 32.9907 37.629 32.9907 36.3107V21.6828C32.9907 20.2133 34.5906 19.6368 35.6353 20.2309Z" fill="white"/>
</g>
<defs>
<filter id="filter0_d" x="0.175903" y="0.3125" width="131.472" height="65.375" filterUnits="userSpaceOnUse" color-interpolation-filters="sRGB">
<feFlood flood-opacity="0" result="BackgroundImageFix"/>
<feColorMatrix in="SourceAlpha" type="matrix" values="0 0 0 0 0 0 0 0 0 0 0 0 0 0 0 0 0 0 127 0"/>
<feOffset dy="4"/>
<feGaussianBlur stdDeviation="2"/>
<feColorMatrix type="matrix" values="0 0 0 0 0 0 0 0 0 0 0 0 0 0 0 0 0 0 0.25 0"/>
<feBlend mode="normal" in2="BackgroundImageFix" result="effect1_dropShadow"/>
<feBlend mode="normal" in="SourceGraphic" in2="effect1_dropShadow" result="shape"/>
</filter>
</defs>
</svg>
